Coordinates
version=1
nRows=10
nColumns=40
inDegrees=yes

Units are S.I. units (second, meters, Newtons, ...)
Angles are in degrees.

endheader
time	pelvis_tilt	pelvis_list	pelvis_rotation	pelvis_tx	pelvis_ty	pelvis_tz	hip_flexion_r	hip_adduction_r	hip_rotation_r	knee_angle_r	knee_angle_r_beta	ankle_angle_r	subtalar_angle_r	mtp_angle_r	hip_flexion_l	hip_adduction_l	hip_rotation_l	knee_angle_l	knee_angle_l_beta	ankle_angle_l	subtalar_angle_l	mtp_angle_l	lumbar_extension	lumbar_bending	lumbar_rotation	arm_flex_r	arm_add_r	arm_rot_r	elbow_flex_r	pro_sup_r	wrist_flex_r	wrist_dev_r	arm_flex_l	arm_add_l	arm_rot_l	elbow_flex_l	pro_sup_l	wrist_flex_l	wrist_dev_l
     54.42750000	     -2.84259156	     -2.60193835	      2.03713783	      1.12986681	      0.92027816	      0.48149824	     23.55502367	     -4.08198549	    -15.90386540	     24.13373670	     24.13373670	      4.34521350	     -5.82715069	     -2.01348395	     -0.67731106	     -9.05209170	     -6.82930588	     36.74614392	     36.74614392	      6.97784066	    -14.16832716	    -16.67632225	     -9.64391711	      4.66197111	      0.77467217	    -13.99054965	    -11.47665503	    -15.81991752	     20.67952095	     47.21450557	      0.00000000	      0.00000000	     11.79727283	    -13.61092207	    -13.90503069	     95.03592948	     48.16824232	      0.00000000	      0.00000000
     54.43885714	     -2.80808500	     -2.79701231	      2.13989490	      1.13032669	      0.92190099	      0.48509711	     22.61963848	     -3.61599767	    -16.26835290	     23.76769955	     23.76769955	      4.97033582	     -5.41922343	     -2.13236757	      1.41164846	     -9.74955452	     -5.74452063	     41.02716268	     41.02716268	      4.22022306	    -16.10169662	    -16.00774594	     -9.72829643	      4.66822947	      0.80527061	    -12.61917304	    -11.44056237	    -15.68798644	     21.68062038	     47.16667402	      0.00000000	      0.00000000	     10.54274772	    -13.21375000	    -13.87638797	     93.44917977	     48.13452813	      0.00000000	      0.00000000
     54.45021429	     -2.81937585	     -2.98206510	      2.22191751	      1.13058515	      0.92325468	      0.48858124	     21.78025810	     -3.17825151	    -16.63739950	     23.46308208	     23.46308208	      5.66187959	     -4.91673871	     -2.06912717	      3.80927240	    -10.27495415	     -4.45263780	     45.60486743	     45.60486743	      2.76279149	    -17.08143337	    -11.74618890	     -9.76222201	      4.67956508	      1.13369926	    -12.06709583	    -11.52435112	    -14.31180336	     24.86333787	     46.87331178	      0.00000000	      0.00000000	      9.82372119	    -12.49054982	    -13.95409372	     90.68716665	     48.12079271	      0.00000000	      0.00000000
     54.46157143	     -2.77479857	     -3.38854874	      2.28915241	      1.13072271	      0.92432770	      0.49214608	     20.86440638	     -2.44513282	    -16.93480182	     23.06124029	     23.06124029	      6.16741151	     -4.67775935	     -2.18674303	      6.09134729	    -11.15248755	     -3.47565496	     49.70737569	     49.70737569	      0.29308811	    -18.00855399	    -10.72158751	     -9.91521073	      4.87065600	      1.31511735	    -10.34814967	    -11.53531919	    -14.16381476	     25.85950901	     46.83032763	      0.00000000	      0.00000000	      8.64489795	    -12.01028119	    -13.68168919	     89.23899946	     48.07112311	      0.00000000	      0.00000000
     54.47292857	     -3.00109037	     -3.64390880	      2.41263653	      1.13049321	      0.92498932	      0.49525259	     20.24760137	     -1.90883445	    -17.17484898	     22.61614102	     22.61614102	      6.54193695	     -4.53535245	     -2.41557392	      9.04672934	    -11.41001495	     -1.85057649	     54.18598679	     54.18598679	      0.75247676	    -17.98763235	     -2.32100399	     -9.61822754	      4.98830171	      1.61669842	     -9.64490922	    -11.75163751	    -12.76237098	     29.19412617	     46.55988019	      0.00000000	      0.00000000	      8.47459168	    -11.21627401	    -14.00432285	     84.47705967	     48.01548259	      0.00000000	      0.00000000
     54.48428571	     -3.12463010	     -4.05307085	      2.52658972	      1.13012198	      0.92548716	      0.49836159	     19.56240370	     -1.19333954	    -17.38839704	     22.20599113	     22.20599113	      6.91814156	     -4.47640524	     -2.61789555	     11.75371380	    -11.96812854	     -0.62882487	     57.98141863	     57.98141863	      0.54578551	    -17.99729281	      2.85594107	     -9.53340315	      5.22825708	      1.93186797	     -8.70529962	    -12.12886051	    -11.01555188	     32.53013748	     46.28394735	      0.00000000	      0.00000000	      7.91096136	    -10.85243402	    -13.18165388	     81.15928203	     47.91022229	      0.00000000	      0.00000000
     54.49564286	     -3.24420386	     -4.49515669	      2.65542204	      1.12958473	      0.92583260	      0.50136364	     18.89048002	     -0.43571815	    -17.55529607	     21.79177261	     21.79177261	      7.27445877	     -4.50125263	     -2.78652040	     14.35909375	    -12.54423385	      0.46907542	     61.17236902	     61.17236902	      0.21072230	    -18.15136230	      6.26671282	     -9.43774275	      5.49862243	      2.28512899	     -7.51043877	    -12.54305573	     -9.36656089	     35.53980151	     46.05132836	      0.00000000	      0.00000000	      7.55686760	    -10.31066491	    -12.72059248	     77.35379457	     47.81688437	      0.00000000	      0.00000000
     54.50700000	     -3.34556906	     -4.88179861	      2.81460398	      1.12893558	      0.92619075	      0.50414241	     18.18921220	      0.26567741	    -17.66945483	     21.33169180	     21.33169180	      7.61728806	     -4.58382493	     -2.81041101	     16.78332064	    -13.09388923	      1.33329705	     63.65280460	     63.65280460	     -0.44126537	    -18.42790872	      7.23296689	     -9.36839357	      5.67697091	      1.89910923	     -5.20475081	    -12.61234783	     -8.99408241	     37.46216306	     45.96582029	      0.00000000	      0.00000000	      6.53015633	    -10.21733072	    -12.34870857	     74.35552261	     47.73239646	      0.00000000	      0.00000000
     54.51835714	     -3.45408374	     -5.26884599	      3.01675005	      1.12802468	      0.92650461	      0.50668430	     17.54393578	      0.95563513	    -17.73675861	     20.91406277	     20.91406277	      7.89752893	     -4.81477399	     -2.94279516	     19.29045460	    -13.54695307	      2.18400125	     65.80647597	     65.80647597	      0.12527089	    -18.51359999	     10.26177454	     -9.26953236	      5.93539329	      2.58110509	     -4.08653894	    -13.20781847	     -7.36580787	     40.84732067	     45.74490116	      0.00000000	      0.00000000	      7.18203763	     -9.38856409	    -11.81703907	     68.59394657	     47.60284114	      0.00000000	      0.00000000
     54.52971429	     -3.53883669	     -5.68225737	      3.28952005	      1.12700058	      0.92678986	      0.50905259	     16.85958547	      1.64172293	    -17.94781972	     20.46356192	     20.46356192	      8.23401282	     -4.86904743	     -2.94595272	     21.65029171	    -14.12318722	      2.79646521	     67.27479824	     67.27479824	      0.20904580	    -18.71512619	     10.47012005	     -9.25977492	      6.15162169	      2.11446022	     -1.48189533	    -13.21188255	     -7.27904369	     42.65576126	     45.68712893	      0.00000000	      0.00000000	      6.01343972	     -9.29318449	    -11.34549504	     66.15874423	     47.52149377	      0.00000000	      0.00000000
